<?xml version="1.0" standalone="no"?>
<!DOCTYPE svg PUBLIC "-//W3C//DTD SVG 20010904//EN"
 "http://www.w3.org/TR/2001/REC-SVG-20010904/DTD/svg10.dtd">
<svg version="1.0" xmlns="http://www.w3.org/2000/svg"
 width="787.000000pt" height="787.000000pt" viewBox="0 0 787.000000 787.000000"
 preserveAspectRatio="xMidYMid meet">
<metadata>
Created by potrace 1.14, written by Peter Selinger 2001-2017
</metadata>
<g transform="translate(0.000000,787.000000) scale(0.100000,-0.100000)"
fill="#000000" stroke="none">
<path d="M5394 7684 c-261 -271 -371 -353 -538 -401 -140 -41 -263 -28 -405
41 -132 64 -223 141 -411 346 -47 51 -106 116 -132 144 l-47 51 -138 -145
c-254 -268 -323 -326 -453 -388 -93 -45 -181 -63 -281 -58 -186 10 -357 99
-561 291 -41 39 -110 102 -153 140 -43 39 -93 85 -112 103 -18 17 -35 32 -38
32 -2 0 -37 -28 -78 -62 -40 -35 -93 -79 -118 -100 -97 -80 -1086 -903 -1121
-932 -20 -17 -86 -71 -146 -121 -61 -49 -111 -93 -111 -96 -1 -5 43 -31 134
-77 69 -36 254 -164 306 -214 62 -58 126 -146 136 -187 3 -14 9 -30 13 -36 6
-9 11 -29 26 -105 2 -8 6 -35 11 -60 10 -57 10 -1280 1 -1286 -7 -5 -298 187
-340 224 -16 14 -23 10 -71 -39 -180 -182 -294 -382 -362 -634 -34 -127 -36
-145 -40 -285 -3 -110 4 -178 29 -320 15 -85 82 -273 127 -360 53 -101 80
-139 146 -205 l41 -42 -37 -54 c-116 -164 -212 -436 -236 -664 -4 -33 -8 -71
-11 -85 -8 -47 -4 -305 5 -385 57 -475 267 -789 577 -861 61 -14 224 -21 242
-10 4 2 28 7 54 10 193 26 560 226 725 396 42 44 80 76 83 72 5 -7 107 -94
159 -137 31 -25 191 -165 211 -184 36 -35 242 -202 310 -252 303 -222 612
-365 890 -414 19 -4 49 -9 65 -12 109 -19 446 -5 555 22 14 4 36 9 50 11 53 9
219 68 305 108 208 98 464 283 719 521 64 59 231 205 273 237 26 21 64 51 83
67 l35 29 60 -54 c125 -115 399 -277 568 -337 131 -47 232 -67 342 -67 349 -3
599 255 680 702 28 153 27 492 -1 577 -3 8 -7 30 -10 50 -15 99 -65 251 -118
361 -50 101 -102 176 -171 248 l-64 65 48 56 c167 194 281 456 307 706 7 76 8
247 0 282 -6 26 -19 111 -21 138 -6 63 -42 204 -73 281 -54 135 -153 285 -279
422 l-68 74 -130 -88 c-72 -48 -165 -111 -207 -140 -61 -42 -78 -50 -78 -36
-3 121 1 1167 5 1197 38 305 114 443 410 740 l103 104 -61 54 c-34 29 -75 64
-91 78 -16 13 -34 29 -40 34 -6 6 -72 62 -146 125 -74 63 -146 124 -160 136
-14 12 -95 81 -180 154 -85 73 -166 142 -180 154 -14 12 -56 48 -95 80 -38 33
-95 80 -125 106 -82 71 -279 239 -339 290 -30 25 -59 48 -66 52 -8 5 -76 -59
-191 -178z"/>
</g>
</svg>
